<svg xmlns="http://www.w3.org/2000/svg" width="152" height="73" viewBox="0 0 152 73" fill="none"><path d="M148.279 60.3116H140.104L134.143 43.1464H134.013L134.501 60.3116H129.909V38.3259H137.824L143.947 55.9144H144.077L143.589 38.3259H148.279V60.3116Z" fill="#FBFBFB"></path><path d="M119.607 60.3116H114.461V38.3259H119.607V60.3116Z" fill="#FBFBFB"></path><path d="M97.0926 53.0481H95.1383V60.3116H89.992V38.3259H97.0926C101.718 38.3259 105.724 40.5733 105.724 45.3939C105.724 49.4979 102.597 53.0481 97.0926 53.0481ZM100.252 45.6219C100.252 43.863 99.112 42.6579 97.0274 42.6579H95.1383V49.0744H97.0274C99.112 49.0744 100.252 47.511 100.252 45.6219Z" fill="#FBFBFB"></path><path d="M70.7874 60.3116H63.6543L61.5371 49.8562C61.244 48.3579 60.6903 45.5242 60.2994 43.179H60.1366L59.876 60.3116H55.2183L56.0651 38.3259H64.664C64.664 38.3259 66.6834 48.4556 67.6606 55.6864H67.7909C69.0286 48.423 71.4389 38.3259 71.4389 38.3259H79.94L80.8195 60.3116H74.8589L74.468 43.179H74.3052C73.8817 45.7196 73.3606 48.2602 73.0023 49.8562L70.7874 60.3116Z" fill="#FBFBFB"></path><path d="M46.8576 49.1394C46.8576 55.0348 44.8056 60.6371 37.0862 60.6371C29.3667 60.6371 27.4125 55.0348 27.4125 49.1394C27.4125 43.4069 29.3342 38 37.0862 38C45.0011 38 46.8576 43.3417 46.8576 49.1394ZM41.3856 49.1069C41.3856 45.296 40.5062 42.4297 37.0862 42.4297C33.6662 42.4297 32.8519 45.3611 32.8519 49.1069C32.8519 53.276 33.7313 56.3051 37.0862 56.3051C40.4085 56.3051 41.3856 53.3086 41.3856 49.1069Z" fill="#FBFBFB"></path><path d="M20.321 58.2594C17.9758 59.8554 15.4027 60.6371 12.4713 60.6371C6.21756 60.6371 2.73242 56.7286 2.73242 49.2046C2.73242 42.4949 5.92442 38 12.4713 38C15.5981 38 18.3993 38.6514 20.2884 39.8891L18.3667 44.0257C17.2918 43.2114 15.4027 42.56 13.0901 42.56C9.83299 42.56 8.17185 44.612 8.17185 49.172C8.17185 53.96 9.80042 56.0446 13.025 56.0446C15.0444 56.0446 17.1941 55.1326 18.6924 54.0577L20.321 58.2594Z" fill="#FBFBFB"></path><rect y="67.9114" width="62.9715" height="4.34285" fill="#0F69C4"></rect><rect x="62.9715" y="67.9113" width="89.0286" height="4.34285" fill="#E22C2C"></rect></svg>